<?xml version="1.0" encoding="UTF-8" standalone="no"?>
<!DOCTYPE svg PUBLIC "-//W3C//DTD SVG 1.1//EN" "http://www.w3.org/Graphics/SVG/1.1/DTD/svg11.dtd">
<svg width="100%" height="100%" viewBox="0 0 1080 1080" version="1.1" xmlns="http://www.w3.org/2000/svg" xmlns:xlink="http://www.w3.org/1999/xlink" xml:space="preserve" xmlns:serif="http://www.serif.com/" style="fill-rule:evenodd;clip-rule:evenodd;stroke-linecap:round;stroke-linejoin:round;stroke-miterlimit:1.5;">
    <g id="Layer1">
        <g transform="matrix(1.24019,0,0,1.24019,-135.908,-127.645)">
            <path d="M391.997,921.567L391.997,858.01C391.997,858.01 431.072,858.481 431.072,858.01C431.072,817.051 491.33,805.752 491.33,805.752L491.33,700.295C491.33,611.786 446.605,655.569 374.574,583.538C302.542,511.507 303.013,182.422 303.013,182.422L280.889,182.422L280.889,155.116L545.004,155.985L809.119,155.116L809.119,182.422L786.995,182.422C786.995,182.422 787.466,511.507 715.435,583.538C643.404,655.569 598.678,611.786 598.678,700.295L598.678,805.752C598.678,805.752 658.936,817.051 658.936,858.01C658.936,858.481 698.012,858.01 698.012,858.01L698.012,921.567L391.997,921.567Z" style="fill:none;stroke:rgb(54,52,60);stroke-width:19.35px;"/>
        </g>
        <g transform="matrix(1,0,0,1,-111.388,-14.1351)">
            <path d="M651.388,163.09L699.92,312.456L856.972,312.456L729.914,404.769L778.446,554.135L651.388,461.822L524.33,554.135L572.862,404.769L445.804,312.456L602.856,312.456L651.388,163.09Z" style="fill:rgb(54,52,60);"/>
        </g>
    </g>
</svg>
