<?xml version="1.0" encoding="UTF-8" standalone="no"?><!DOCTYPE svg PUBLIC "-//W3C//DTD SVG 1.1//EN" "http://www.w3.org/Graphics/SVG/1.1/DTD/svg11.dtd"><svg width="100%" height="100%" viewBox="0 0 540 540" version="1.1" xmlns="http://www.w3.org/2000/svg" xmlns:xlink="http://www.w3.org/1999/xlink" xml:space="preserve" xmlns:serif="http://www.serif.com/" style="fill-rule:evenodd;clip-rule:evenodd;stroke-linecap:round;stroke-linejoin:round;stroke-miterlimit:1.5;"><g id="Layer1"><path d="M175.121,507.636l0,-39.411c0,0 24.23,0.292 24.23,0c0,-25.399 37.366,-32.405 37.366,-32.405l0,-65.394c0,-54.884 -27.734,-27.734 -72.4,-72.4c-44.666,-44.666 -44.374,-248.73 -44.374,-248.73l-13.719,0l0,-16.932l163.776,0.539l163.776,-0.539l0,16.932l-13.719,0c0,0 0.292,204.064 -44.374,248.73c-44.666,44.666 -72.4,17.516 -72.4,72.4l0,65.394c0,0 37.366,7.006 37.366,32.405c0,0.292 24.23,0 24.23,0l0,39.411l-189.758,0Z" style="fill:none;stroke:#36343c;stroke-width:12px;"/></g><g><path d="M345.381,104.571l-28.569,0.057l0,49.382l-122.147,-109.206l-0.046,44.113l150.756,136.498l0.006,-120.844Z" style="fill:#36343c;stroke:#000;stroke-width:0.5px;"/><path d="M194.619,243.617l28.569,-0.057l0,-49.382l122.147,109.206l0.046,-44.113l-150.756,-136.498l-0.006,120.844Z" style="fill:#36343c;stroke:#000;stroke-width:0.5px;"/></g></svg>